<?xml version="1.0" standalone="no"?>
<!DOCTYPE svg PUBLIC "-//W3C//DTD SVG 20010904//EN"
 "http://www.w3.org/TR/2001/REC-SVG-20010904/DTD/svg10.dtd">
<svg version="1.0" xmlns="http://www.w3.org/2000/svg"
 width="275.000000pt" height="275.000000pt" viewBox="0 0 275.000000 275.000000"
 preserveAspectRatio="xMidYMid meet">
<metadata>
Created by potrace 1.14, written by Peter Selinger 2001-2017
</metadata>
<g transform="translate(0.000000,275.000000) scale(0.100000,-0.100000)"
fill="#000000" stroke="none">
<path d="M240 2065 l-45 -45 283 -283 c155 -155 282 -285 282 -289 0 -3 -124
-130 -275 -281 -151 -151 -275 -277 -275 -281 0 -8 78 -86 86 -86 4 0 152 146
330 324 l324 323 -331 332 c-182 182 -332 331 -333 331 -1 0 -22 -20 -46 -45z"/>
<path d="M1662 2082 c-7 -2 -12 -22 -12 -53 l0 -49 -57 0 -58 0 0 -70 0 -70
58 0 57 0 0 -90 0 -90 -59 0 -58 0 2 -69 2 -70 -36 -3 c-20 -2 -66 -2 -102 0
l-65 3 0 67 1 67 -45 1 c-25 1 -50 2 -56 3 -7 1 -11 35 -12 91 l-1 90 145 0
144 0 0 70 0 70 -62 1 c-35 0 -100 1 -145 1 l-81 -1 2 50 2 49 -73 0 -73 0 0
-228 0 -228 53 1 52 0 3 -57 c3 -55 4 -57 30 -54 15 1 40 -1 56 -4 30 -6 31
-12 27 -116 -1 -12 -12 -15 -61 -12 -67 4 -62 12 -62 -89 l0 -43 -54 0 c-49 0
-54 -2 -54 -22 -1 -37 -1 -360 -1 -395 l1 -33 74 0 73 0 -2 79 c-1 51 2 81 9
84 6 2 32 3 59 1 26 -1 48 0 48 4 1 4 2 35 3 69 2 70 -4 76 -66 71 -19 -1 -38
1 -44 4 -6 4 -10 33 -9 65 l1 58 49 3 c27 2 52 8 56 13 3 5 4 34 2 64 l-3 55
109 0 110 0 3 -67 3 -68 48 0 c26 1 48 -2 48 -5 1 -3 2 -31 3 -62 l2 -58 -36
-1 c-19 0 -82 -1 -140 -2 l-105 -2 0 -70 0 -70 130 -2 c72 0 135 -1 141 -2 6
-1 10 -31 9 -81 -1 -50 3 -80 9 -81 6 -1 39 -2 74 -3 l62 -3 0 229 c0 212 -1
229 -17 227 -10 -1 -34 -1 -54 0 l-35 1 0 63 1 62 -57 0 c-32 0 -59 2 -59 5
-7 27 -2 130 6 132 5 0 15 2 20 3 6 2 28 3 50 4 l40 1 -1 55 -2 55 59 0 59 0
-2 227 -3 227 -60 1 c-33 1 -66 0 -73 -3z"/>
<path d="M1914 710 c0 -68 1 -70 26 -71 41 0 501 -1 550 0 l45 1 -1 67 -1 68
-310 3 -309 2 0 -70z"/>
</g>
</svg>
